<svg xmlns="http://www.w3.org/2000/svg"  x="0" y="0" viewBox="0 0 615 81" preserveAspectRatio="meet">
	<defs>
		<style type="text/css">
			@namespace "http://www.w3.org/2000/svg";
			.line {fill: none; stroke: #332900;}
			.bold-line {stroke: #141000; shape-rendering: crispEdges; stroke-width: 2; }
			.thin-line {stroke: #1F1800; shape-rendering: crispEdges}
			.filled {fill: #332900; stroke: none;}
			text.terminal	 {
				font-family: Verdana, Sans-serif;
				font-size: 12px;
				fill: #141000;
				font-weight: bold;
			}
			text.nonterminal {
				font-family: Verdana, Sans-serif;
				font-size: 12px;
				fill: #1A1400;
				font-weight: normal;
			}
			text.regexp {
				font-family: Verdana, Sans-serif;
				font-size: 12px;
				fill: #1F1800;
				font-weight: normal;
			}
			rect, circle, polygon {fill: #332900; stroke: #332900;}
			rect.terminal {fill: #FFDB4D; stroke: #332900;}
			rect.nonterminal {fill: #FFEC9E; stroke: #332900;}
			rect.text {fill: none; stroke: none;}    
			polygon.regexp {fill: #FFF4C7; stroke: #332900;}
		</style>
	</defs>
	<polygon points="9 17 1 13 1 21"/>
	<polygon points="17 17 9 13 9 21"/>
	<rect x="31" y="3" width="42" height="32" rx="10"/>
	<rect x="29" y="1" width="42" height="32" class="terminal" rx="10"/>
	<text class="terminal" x="39" y="21">6th</text>
	<rect x="93" y="3" width="214" height="32"/>
	<rect x="91" y="1" width="214" height="32" class="nonterminal"/>
	<text class="nonterminal" x="101" y="21">Favored Enemy improvements</text>
	<rect x="347" y="3" width="220" height="32"/>
	<rect x="345" y="1" width="220" height="32" class="nonterminal"/>
	<text class="nonterminal" x="355" y="21">Natural Explorer improvements</text>
	<rect x="347" y="47" width="200" height="32"/>
	<rect x="345" y="45" width="200" height="32" class="nonterminal"/>
	<text class="nonterminal" x="355" y="65">Deft Explorer improvements</text>
	<path xmlns:svg="http://www.w3.org/2000/svg" class="line" d="m17 17 h2 m0 0 h10 m42 0 h10 m0 0 h10 m214 0 h10 m20 0 h10 m220 0 h10 m-260 0 h20 m240 0 h20 m-280 0 q10 0 10 10 m260 0 q0 -10 10 -10 m-270 10 v24 m260 0 v-24 m-260 24 q0 10 10 10 m240 0 q10 0 10 -10 m-250 10 h10 m200 0 h10 m0 0 h20 m23 -44 h-3"/>
	<polygon points="605 17 613 13 613 21"/>
	<polygon points="605 17 597 13 597 21"/>
</svg>