<svg xmlns="http://www.w3.org/2000/svg"  x="0" y="0" viewBox="0 0 395 81" preserveAspectRatio="meet">
	<defs>
		<style type="text/css">
			@namespace "http://www.w3.org/2000/svg";
			.line {fill: none; stroke: #332900;}
			.bold-line {stroke: #141000; shape-rendering: crispEdges; stroke-width: 2; }
			.thin-line {stroke: #1F1800; shape-rendering: crispEdges}
			.filled {fill: #332900; stroke: none;}
			text.terminal	 {
				font-family: Verdana, Sans-serif;
				font-size: 12px;
				fill: #141000;
				font-weight: bold;
			}
			text.nonterminal {
				font-family: Verdana, Sans-serif;
				font-size: 12px;
				fill: #1A1400;
				font-weight: normal;
			}
			text.regexp {
				font-family: Verdana, Sans-serif;
				font-size: 12px;
				fill: #1F1800;
				font-weight: normal;
			}
			rect, circle, polygon {fill: #332900; stroke: #332900;}
			rect.terminal {fill: #FFDB4D; stroke: #332900;}
			rect.nonterminal {fill: #FFEC9E; stroke: #332900;}
			rect.text {fill: none; stroke: none;}    
			polygon.regexp {fill: #FFF4C7; stroke: #332900;}
		</style>
	</defs>
	<polygon points="9 17 1 13 1 21"/>
	<polygon points="17 17 9 13 9 21"/>
	<rect x="31" y="3" width="46" height="32" rx="10"/>
	<rect x="29" y="1" width="46" height="32" class="terminal" rx="10"/>
	<text class="terminal" x="39" y="21">2nd</text>
	<rect x="117" y="3" width="108" height="32"/>
	<rect x="115" y="1" width="108" height="32" class="nonterminal"/>
	<text class="nonterminal" x="125" y="21">Fighting Style</text>
	<rect x="117" y="47" width="116" height="32"/>
	<rect x="115" y="45" width="116" height="32" class="nonterminal"/>
	<text class="nonterminal" x="125" y="65">Druidic Warrior</text>
	<rect x="273" y="3" width="96" height="32"/>
	<rect x="271" y="1" width="96" height="32" class="nonterminal"/>
	<text class="nonterminal" x="281" y="21">Spellcasting</text>
	<path xmlns:svg="http://www.w3.org/2000/svg" class="line" d="m17 17 h2 m0 0 h10 m46 0 h10 m20 0 h10 m108 0 h10 m0 0 h8 m-156 0 h20 m136 0 h20 m-176 0 q10 0 10 10 m156 0 q0 -10 10 -10 m-166 10 v24 m156 0 v-24 m-156 24 q0 10 10 10 m136 0 q10 0 10 -10 m-146 10 h10 m116 0 h10 m20 -44 h10 m96 0 h10 m3 0 h-3"/>
	<polygon points="387 17 395 13 395 21"/>
	<polygon points="387 17 379 13 379 21"/>
</svg>
