<svg xmlns="http://www.w3.org/2000/svg" x="0" y="0" viewBox="0 0 461 81" preserveAspectRatio="meet">
	<defs>
		<style type="text/css">
			@namespace "http://www.w3.org/2000/svg";
			.line {fill: none; stroke: #332900;}
			.bold-line {stroke: #141000; shape-rendering: crispEdges; stroke-width: 2; }
			.thin-line {stroke: #1F1800; shape-rendering: crispEdges}
			.filled {fill: #332900; stroke: none;}
			text.terminal	 {
				font-family: Verdana, Sans-serif;
				font-size: 12px;
				fill: #141000;
				font-weight: bold;
			}
			text.nonterminal {
				font-family: Verdana, Sans-serif;
				font-size: 12px;
				fill: #1A1400;
				font-weight: normal;
			}
			text.regexp {
				font-family: Verdana, Sans-serif;
				font-size: 12px;
				fill: #1F1800;
				font-weight: normal;
			}
			rect, circle, polygon {fill: #332900; stroke: #332900;}
			rect.terminal {fill: #FFDB4D; stroke: #332900;}
			rect.nonterminal {fill: #FFEC9E; stroke: #332900;}
			rect.text {fill: none; stroke: none;}    
			polygon.regexp {fill: #FFF4C7; stroke: #332900;}
		</style>
	</defs>
	<polygon points="9 17 1 13 1 21"/>
	<polygon points="17 17 9 13 9 21"/>
	<rect x="31" y="3" width="42" height="32" rx="10"/>
	<rect x="29" y="1" width="42" height="32" class="terminal" rx="10"/>
	<text class="terminal" x="39" y="21">1st</text>
	<rect x="113" y="3" width="118" height="32"/>
	<rect x="111" y="1" width="118" height="32" class="nonterminal"/>
	<text class="nonterminal" x="121" y="21">Favored Enemy</text>
	<rect x="113" y="47" width="100" height="32"/>
	<rect x="111" y="45" width="100" height="32" class="nonterminal"/>
	<text class="nonterminal" x="121" y="65">Favored Foe</text>
	<rect x="291" y="3" width="124" height="32"/>
	<rect x="289" y="1" width="124" height="32" class="nonterminal"/>
	<text class="nonterminal" x="299" y="21">Natural Explorer</text>
	<rect x="291" y="47" width="104" height="32"/>
	<rect x="289" y="45" width="104" height="32" class="nonterminal"/>
	<text class="nonterminal" x="299" y="65">Deft Explorer</text>
	<path xmlns:svg="http://www.w3.org/2000/svg" class="line" d="m17 17 h2 m0 0 h10 m42 0 h10 m20 0 h10 m118 0 h10 m-158 0 h20 m138 0 h20 m-178 0 q10 0 10 10 m158 0 q0 -10 10 -10 m-168 10 v24 m158 0 v-24 m-158 24 q0 10 10 10 m138 0 q10 0 10 -10 m-148 10 h10 m100 0 h10 m0 0 h18 m40 -44 h10 m124 0 h10 m-164 0 h20 m144 0 h20 m-184 0 q10 0 10 10 m164 0 q0 -10 10 -10 m-174 10 v24 m164 0 v-24 m-164 24 q0 10 10 10 m144 0 q10 0 10 -10 m-154 10 h10 m104 0 h10 m0 0 h20 m23 -44 h-3"/>
	<polygon points="453 17 461 13 461 21"/>
	<polygon points="453 17 445 13 445 21"/>
</svg>
