<svg xmlns="http://www.w3.org/2000/svg"  x="0" y="0" viewBox="0 0 425 37" preserveAspectRatio="meet">
	<defs>
		<style type="text/css">
			@namespace "http://www.w3.org/2000/svg";
			.line {fill: none; stroke: #332900;}
			.bold-line {stroke: #141000; shape-rendering: crispEdges; stroke-width: 2; }
			.thin-line {stroke: #1F1800; shape-rendering: crispEdges}
			.filled {fill: #332900; stroke: none;}
			text.terminal	 {
				font-family: Verdana, Sans-serif;
				font-size: 12px;
				fill: #141000;
				font-weight: bold;
			}
			text.nonterminal {
				font-family: Verdana, Sans-serif;
				font-size: 12px;
				fill: #1A1400;
				font-weight: normal;
			}
			text.regexp {
				font-family: Verdana, Sans-serif;
				font-size: 12px;
				fill: #1F1800;
				font-weight: normal;
			}
			rect, circle, polygon {fill: #332900; stroke: #332900;}
			rect.terminal {fill: #FFDB4D; stroke: #332900;}
			rect.nonterminal {fill: #FFEC9E; stroke: #332900;}
			rect.text {fill: none; stroke: none;}    
			polygon.regexp {fill: #FFF4C7; stroke: #332900;}
		</style>
	</defs>
	<polygon points="9 17 1 13 1 21"/>
	<polygon points="17 17 9 13 9 21"/>
	<rect x="31" y="3" width="52" height="32" rx="10"/>
	<rect x="29" y="1" width="52" height="32" class="terminal" rx="10"/>
	<text class="terminal" x="39" y="21">14th</text>
	<rect x="103" y="3" width="214" height="32"/>
	<rect x="101" y="1" width="214" height="32" class="nonterminal"/>
	<text class="nonterminal" x="111" y="21">Favored Enemy improvements</text>
	<rect x="337" y="3" width="62" height="32"/>
	<rect x="335" y="1" width="62" height="32" class="nonterminal"/>
	<text class="nonterminal" x="345" y="21">Vanish</text>
	<path xmlns:svg="http://www.w3.org/2000/svg" class="line" d="m17 17 h2 m0 0 h10 m52 0 h10 m0 0 h10 m214 0 h10 m0 0 h10 m62 0 h10 m3 0 h-3"/>
	<polygon points="417 17 425 13 425 21"/>
	<polygon points="417 17 409 13 409 21"/>
</svg>